<svg xmlns="http://www.w3.org/2000/svg" viewBox="0 0 64 64">
  <rect width="64" height="64" rx="14" fill="#111827"/>
  <path
    d="M17 21h22a4 4 0 0 1 4 4v5h4.6a4 4 0 0 1 3.2 1.6l4.2 5.6a4 4 0 0 1 .8 2.4V44a3 3 0 0 1-3 3h-2.4a6 6 0 0 1-11.2 0H28.8a6 6 0 0 1-11.2 0H15a3 3 0 0 1-3-3V26a5 5 0 0 1 5-5Z"
    fill="none"
    stroke="#fff"
    stroke-linecap="round"
    stroke-linejoin="round"
    stroke-width="4"
  />
  <path
    d="M43 30v10h11"
    fill="none"
    stroke="#fff"
    stroke-linecap="round"
    stroke-linejoin="round"
    stroke-width="4"
  />
  <circle cx="23.2" cy="47" r="2.4" fill="#22d3ee"/>
  <circle cx="44.8" cy="47" r="2.4" fill="#22d3ee"/>
</svg>
